<?xml version="1.0" encoding="utf-8"?>
<!-- Generator: Adobe Illustrator 21.0.2, SVG Export Plug-In . SVG Version: 6.00 Build 0)  -->
<svg version="1.1" id="Layer_1" xmlns="http://www.w3.org/2000/svg" xmlns:xlink="http://www.w3.org/1999/xlink" x="0px" y="0px"
	 viewBox="0 0 500 500" style="enable-background:new 0 0 500 500;" xml:space="preserve">
<style type="text/css">
	.st0{fill:#231F20;}
</style>
<path class="st0" d="M480.2,273c0,0-2.8-23.7-28.2-34.9c-14-6.2-28.9-5.5-39.5-3.6c-0.2-0.8-0.4-1.6-0.6-2.4
	c9.8-4,22.2-11.1,30.6-23.1c15.9-22.8,6-44.5,6-44.5l-15.8,3.6l-1.8-17c-9.9-1.7-24.7-0.8-41.9,16.2c-12.6,12.5-14.6,27.3-14.7,34.3
	c-0.9-0.1-1.9-0.1-2.8-0.1c-0.6-10.7-3.4-25-12.3-37c-16.6-22.3-40.4-19.6-40.4-19.6l-1.5,16.1l-16.8-3.6
	c-4.8,8.9-8.5,23.3,2.3,44.9c7.8,15.8,21.2,22.3,27.9,24.7c-0.4,0.7-0.7,1.5-1,2.2c-10.4-1.9-24.5-2.6-37.9,2.9
	c-25.7,10.5-29.1,34.2-29.1,34.2l15.2,5.5l-7.7,15.3c7.4,6.8,20.4,14,44,9c16-3.4,25.5-13.4,30-19.5c0.8,0.6,1.6,1.1,2.4,1.7
	c-4.6,5.3-13,17.7-11.9,35.4c1.5,24.1,11.9,34.7,20.5,40l12.7-11.5l9.4,13.2c0,0,21.9-9.6,25.2-37.2c1.7-14.1-2.6-27.3-7.1-36.7
	c0.8-0.5,1.5-1,2.3-1.6c3.8,5.9,13.1,17.6,30.4,21.7c23.5,5.6,36.7-1.3,44.2-7.9l-7.3-15.5L480.2,273z M408.7,244.5
	c-1.4,0-2.6-0.8-3.1-2l-22.2,0.8c0,0.9-0.2,1.8-0.5,2.7l16.6,2.8c0.6-1.2,1.7-2,3.1-2c1.9,0,3.5,1.6,3.5,3.5c0,1.9-1.6,3.5-3.5,3.5
	c-1.9,0-3.4-1.4-3.5-3.3l-17.1-2.9c-0.1,0.2-0.2,0.3-0.3,0.5l19,10.3c0.6-0.8,1.6-1.3,2.7-1.3c1.9,0,3.5,1.6,3.5,3.5
	c0,1.9-1.6,3.5-3.5,3.5c-1.9,0-3.5-1.6-3.5-3.5c0-0.2,0-0.3,0.1-0.5l-19.5-10.5c-0.3,0.3-0.6,0.5-1,0.8l9.2,10.7
	c0.5-0.3,1-0.4,1.6-0.4c1.9,0,3.5,1.6,3.5,3.5c0,1.9-1.6,3.5-3.5,3.5c-1.9,0-3.5-1.6-3.5-3.5c0-0.7,0.2-1.3,0.5-1.9l-9.5-11
	c-0.2,0.1-0.4,0.2-0.6,0.2l6.1,19.8c0.1,0,0.3,0,0.4,0c1.9,0,3.5,1.6,3.5,3.5c0,1.9-1.6,3.5-3.5,3.5c-1.9,0-3.5-1.6-3.5-3.5
	c0-1.2,0.6-2.2,1.4-2.8l-6.1-20c-0.3,0-0.6,0.1-1,0.1l-0.1,14.6c1.5,0.4,2.6,1.8,2.6,3.4c0,1.9-1.6,3.5-3.5,3.5
	c-1.9,0-3.5-1.6-3.5-3.5c0-1.6,1.1-3,2.6-3.4l0.1-14.7c-0.5-0.1-0.9-0.1-1.3-0.3l-6.6,23.7c1.1,0.6,1.9,1.7,1.9,3.1
	c0,1.9-1.6,3.5-3.5,3.5c-1.9,0-3.5-1.6-3.5-3.5c0-1.9,1.5-3.4,3.3-3.5l6.6-23.6l-10,12.3c0.6,0.6,1,1.5,1,2.4c0,1.9-1.6,3.5-3.5,3.5
	c-1.9,0-3.5-1.6-3.5-3.5c0-1.9,1.6-3.5,3.5-3.5c0.3,0,0.6,0.1,0.9,0.1l10.3-12.7c-0.5-0.4-1-0.8-1.4-1.3L351,262
	c0.2,0.5,0.4,1,0.4,1.5c0,1.9-1.6,3.5-3.5,3.5c-1.9,0-3.5-1.6-3.5-3.5c0-1.9,1.6-3.5,3.5-3.5c0.7,0,1.4,0.2,2,0.6l16.1-13.4
	c-0.1-0.2-0.2-0.4-0.3-0.6l-10.7,3.8c0,0.2,0.1,0.4,0.1,0.6c0,1.9-1.6,3.5-3.5,3.5c-1.9,0-3.5-1.6-3.5-3.5c0-1.9,1.6-3.5,3.5-3.5
	c1.1,0,2,0.5,2.6,1.2l10.9-3.9c-0.1-0.3-0.1-0.5-0.1-0.8l-15.6,0.1c-0.3,1.7-1.7,2.9-3.4,2.9c-1.9,0-3.5-1.6-3.5-3.5
	c0-1.9,1.6-3.5,3.5-3.5c1.5,0,2.8,0.9,3.3,2.3l15.8-0.1c0-0.4,0.1-0.7,0.2-1l-17.2-6.2c-0.6,0.7-1.5,1.1-2.5,1.1
	c-1.9,0-3.4-1.5-3.4-3.4c0-1.9,1.5-3.4,3.4-3.4c1.9,0,3.4,1.5,3.4,3.4c0,0.2,0,0.4-0.1,0.7l17,6.1c0.1-0.3,0.3-0.6,0.5-0.8
	l-16.9-13.1c-0.6,0.4-1.3,0.6-2,0.6c-1.9,0-3.5-1.6-3.5-3.5c0-1.9,1.6-3.5,3.5-3.5c1.9,0,3.5,1.6,3.5,3.5c0,0.5-0.1,1-0.3,1.5
	l16.8,13.1c0.3-0.3,0.6-0.6,1-0.9l-8.2-10.1c-0.2,0-0.4,0.1-0.7,0.1c-1.9,0-3.5-1.6-3.5-3.5s1.6-3.5,3.5-3.5c1.9,0,3.5,1.6,3.5,3.5
	c0,1-0.5,2-1.2,2.6l8.1,9.9c0.2-0.1,0.4-0.2,0.6-0.3l-5.8-16.1c-0.2,0-0.3,0-0.5,0c-1.9,0-3.5-1.6-3.5-3.5c0-1.9,1.6-3.5,3.5-3.5
	c1.9,0,3.5,1.6,3.5,3.5c0,1.1-0.5,2.1-1.4,2.8l5.8,16.2c0.2,0,0.4-0.1,0.5-0.1l-0.1-9.5c-1.6-0.3-2.8-1.7-2.8-3.4
	c0-1.9,1.6-3.5,3.5-3.5c1.9,0,3.5,1.6,3.5,3.5c0,1.6-1,2.9-2.4,3.3l0.1,9.4c0.7,0,1.4,0.1,2,0.3l4-17.1c-1.1-0.6-1.9-1.7-1.9-3.1
	c0-1.9,1.6-3.5,3.5-3.5c1.9,0,3.5,1.6,3.5,3.5c0,1.9-1.5,3.4-3.4,3.5l-4,17.2c0.1,0,0.2,0.1,0.3,0.1l13.9-18.9
	c-0.7-0.6-1.1-1.5-1.1-2.5c0-1.9,1.6-3.5,3.5-3.5c1.9,0,3.5,1.6,3.5,3.5s-1.6,3.5-3.5,3.5c-0.3,0-0.5,0-0.8-0.1l-14,19
	c0.4,0.3,0.8,0.6,1.1,1l13.5-10.7c-0.2-0.4-0.3-0.9-0.3-1.4c0-1.9,1.6-3.5,3.5-3.5c1.9,0,3.5,1.6,3.5,3.5s-1.6,3.5-3.5,3.5
	c-0.8,0-1.5-0.3-2.1-0.7l-13.5,10.8c0.2,0.3,0.4,0.6,0.5,1l9.6-4.2c0-1.9,1.6-3.4,3.5-3.4c1.9,0,3.5,1.6,3.5,3.5s-1.6,3.5-3.5,3.5
	c-1.3,0-2.4-0.7-3-1.8l-9.5,4.2c0,0,0,0,0,0.1l22-0.7c0.1-1.8,1.6-3.2,3.5-3.2c1.9,0,3.5,1.6,3.5,3.5
	C412.2,242.9,410.7,244.5,408.7,244.5z"/>
<path class="st0" d="M239.7,273.6l-0.1-0.8c0-0.2-3.1-24.4-28.8-35.7c-14-6.2-28.9-5.5-39.2-3.8c-0.1-0.2-0.1-0.5-0.2-0.7
	c9.3-3.9,21.8-11,30.3-23.1c16.1-23,6.2-45.3,6.1-45.5l-0.3-0.7l-15.5,3.6l-1.8-16.7l-0.7-0.1c-14.7-2.6-29.1,3-42.8,16.5
	c-12.1,12-14.6,26-15,34c-0.3,0-0.6,0-0.9,0c-0.7-10.2-3.5-24.6-12.5-36.6c-16.8-22.4-41-20-41.3-20l-0.8,0.1l-1.5,15.8l-16.4-3.5
	l-0.4,0.7c-7.1,13.2-6.3,28.6,2.2,45.8c7.5,15.2,20,22,27.4,24.8c-0.1,0.2-0.2,0.4-0.2,0.5c-9.8-1.7-24.1-2.5-37.7,3.1
	c-25.9,10.6-29.7,34.7-29.7,35l-0.1,0.8l14.9,5.4l-7.5,15l0.6,0.5c11,10.1,26.1,13.3,44.9,9.3c15.8-3.3,25.4-13.1,30-19.1
	c0.2,0.2,0.5,0.3,0.7,0.5c-5,6.2-12.4,18.3-11.4,35.2c1.2,19.2,8.2,32.9,21,40.8l0.6,0.4l12.4-11.3l9.2,13l0.7-0.3
	c0.2-0.1,22.4-10.2,25.7-38c1.7-14.3-2.7-27.6-6.8-36.5c0.3-0.2,0.5-0.3,0.7-0.5c4.4,6.6,13.8,17.3,30.4,21.3
	c18.7,4.5,33.9,1.7,45.1-8.1l0.6-0.5l-7.1-15.2L239.7,273.6z M229.3,293.2c-10.7,9-25.1,11.4-42.8,7.2c-2-0.5-4-1.1-5.9-1.8
	c-2.5-0.9-4.9-2.1-7.1-3.4c-2.1-1.2-4-2.5-5.9-4c-1.7-1.3-3.2-2.8-4.7-4.3c-1.3-1.3-2.5-2.7-3.6-4.2c-0.5-0.6-1-1.3-1.4-1.9
	c-0.2-0.3-0.4-0.6-0.7-0.9c-0.6-0.9-1.1-1.9-2.1-2.3c-0.3-0.1-0.6-0.2-0.9-0.1c-0.3,0.1-0.6,0.3-0.9,0.5c-0.3,0.2-0.6,0.4-0.8,0.6
	c-0.6,0.8-0.3,2,0,2.8c0.1,0.4,0.4,0.7,0.6,1c0.2,0.3,0.3,0.7,0.5,1c1,2.3,2,4.7,2.8,7.1c0.9,2.7,1.7,5.5,2.3,8.3
	c0.6,3,1.1,6.1,1.3,9.1c0.2,3.2,0.1,6.5-0.3,9.7c-2.8,23.8-20.1,34.1-23.8,36l-9.5-13.4l-13,11.8c-11.7-7.6-18.3-20.6-19.4-38.8
	c-1.1-17.1,6.8-29,11.6-34.7c0.2-0.3,0.6-0.5,0.7-0.9c0.1-0.3,0.1-0.7,0-1c-0.1-0.5-0.4-0.8-0.8-1.1c-0.3-0.2-0.7-0.5-1-0.7
	c-0.4-0.3-0.8-0.5-1.2-0.4c-0.4,0.1-0.9,0.2-1.2,0.4c-0.2,0.2-0.3,0.5-0.5,0.7c-4.1,5.7-13.5,15.8-29.4,19.1
	c-17.8,3.8-32.1,1-42.6-8.3l7.9-15.6l-15.5-5.6c0.9-4.2,6.1-23.5,28.3-32.6c1.8-0.7,3.7-1.4,5.6-1.9c5.9-1.7,12-2.3,18.1-2.3
	c2.7,0,5.4,0.2,8.1,0.5c1.2,0.1,2.5,0.2,3.8,0.5c1.4,0.3,2.7,0.8,4.2,0.5c0.4-0.1,0.8-0.2,1.1-0.5c0.8-0.8,0.3-3-0.8-3.4
	c0,0-1.1-0.4-1.1-0.4c-6.9-2.5-19.7-8.9-27.3-24.2c-8.1-16.3-9-30.8-2.6-43.3l17.1,3.7l1.5-16.4c4.2-0.2,24.3,0,38.7,19.3
	c9,12,11.5,26.5,12.1,36.5l0.1,0.9l0.8,1.7c0.9,0,1.9,0.1,2.8,0.1l1.2-1.6l0-1.1c0.2-7.4,2.2-21.6,14.4-33.6
	c12.9-12.8,26.5-18.2,40.3-16.1l1.8,17.4l16.1-3.7c1.5,4,7.6,23.1-6.2,42.8c-0.2,0.3-0.5,0.7-0.7,1c-1.7,2.3-3.6,4.4-5.6,6.5
	c-1.9,1.9-4,3.7-6.2,5.3c-2,1.6-4.2,3-6.4,4.3c-2,1.2-4.1,2.3-6.2,3.4c-1,0.5-2,0.9-3,1.4c-0.5,0.2-0.9,0.4-1.4,0.6
	c-0.6,0.3-1.3,0.5-1.8,0.9c-0.7,0.6-0.7,1.4-0.5,2.3c0.2,0.7,0.7,1.3,1.4,1.5c0.8,0.1,1.6-0.1,2.4-0.2c0.4-0.1,0.7-0.1,1.1-0.2
	c0.8-0.1,1.6-0.2,2.3-0.3c2.6-0.3,5.2-0.5,7.8-0.6c2.9-0.1,5.7,0,8.6,0.3c3,0.3,6.1,0.8,9,1.5c3.1,0.8,6.2,1.8,9.1,3.1
	c22,9.7,26.7,29.2,27.5,33.3l-15.6,5.2L229.3,293.2z"/>
<path class="st0" d="M170.7,244.8c0,1.9-1.6,3.5-3.5,3.5c-1.4,0-2.6-0.8-3.1-2l-22.2,0.8c0,0.9-0.2,1.8-0.5,2.7l16.6,2.8
	c0.6-1.2,1.7-2,3.1-2c1.9,0,3.5,1.6,3.5,3.5c0,1.9-1.6,3.5-3.5,3.5c-1.9,0-3.4-1.4-3.5-3.3l-17.1-2.9c-0.1,0.2-0.2,0.3-0.3,0.5
	l19,10.3c0.6-0.8,1.6-1.3,2.7-1.3c1.9,0,3.5,1.6,3.5,3.5c0,1.9-1.6,3.5-3.5,3.5s-3.5-1.6-3.5-3.5c0-0.2,0-0.3,0.1-0.5L139,253.3
	c-0.3,0.3-0.6,0.5-1,0.8l9.2,10.7c0.5-0.3,1-0.4,1.6-0.4c1.9,0,3.5,1.6,3.5,3.5c0,1.9-1.6,3.5-3.5,3.5s-3.5-1.6-3.5-3.5
	c0-0.7,0.2-1.3,0.5-1.9l-9.5-11c-0.2,0.1-0.4,0.2-0.6,0.2l6.1,19.8c0.1,0,0.3,0,0.4,0c1.9,0,3.5,1.6,3.5,3.5c0,1.9-1.6,3.5-3.5,3.5
	s-3.5-1.6-3.5-3.5c0-1.2,0.6-2.2,1.4-2.8l-6.1-20c-0.3,0-0.6,0.1-1,0.1l-0.1,14.6c1.5,0.4,2.6,1.8,2.6,3.4c0,1.9-1.6,3.5-3.5,3.5
	s-3.5-1.6-3.5-3.5c0-1.6,1.1-3,2.6-3.4l0.1-14.7c-0.4-0.1-0.9-0.1-1.3-0.3l-6.6,23.7c1.1,0.6,1.9,1.7,1.9,3.1c0,1.9-1.6,3.5-3.5,3.5
	s-3.5-1.6-3.5-3.5c0-1.9,1.5-3.4,3.3-3.5l6.6-23.6l-10,12.3c0.6,0.6,1,1.5,1,2.4c0,1.9-1.6,3.5-3.5,3.5s-3.5-1.6-3.5-3.5
	c0-1.9,1.6-3.5,3.5-3.5c0.3,0,0.6,0.1,0.9,0.1l10.3-12.7c-0.5-0.4-1-0.8-1.4-1.3l-16,13.3c0.2,0.5,0.4,1,0.4,1.5
	c0,1.9-1.6,3.5-3.5,3.5c-1.9,0-3.5-1.6-3.5-3.5c0-1.9,1.6-3.5,3.5-3.5c0.7,0,1.4,0.2,2,0.6l16.1-13.4c-0.1-0.2-0.2-0.4-0.3-0.6
	l-10.7,3.8c0,0.2,0.1,0.4,0.1,0.6c0,1.9-1.6,3.5-3.5,3.5s-3.5-1.6-3.5-3.5c0-1.9,1.6-3.5,3.5-3.5c1.1,0,2,0.5,2.6,1.2l10.9-3.9
	c-0.1-0.3-0.1-0.5-0.1-0.8l-15.6,0.1c-0.3,1.7-1.7,2.9-3.4,2.9c-1.9,0-3.5-1.6-3.5-3.5c0-1.9,1.6-3.5,3.5-3.5c1.5,0,2.8,0.9,3.3,2.3
	l15.8-0.1c0-0.4,0.1-0.7,0.2-1l-17.2-6.2c-0.6,0.7-1.5,1.1-2.5,1.1c-1.9,0-3.4-1.5-3.4-3.4c0-1.9,1.5-3.4,3.4-3.4
	c1.9,0,3.4,1.5,3.4,3.4c0,0.2,0,0.4-0.1,0.7l17,6.1c0.1-0.3,0.3-0.6,0.5-0.8l-16.9-13.1c-0.6,0.4-1.3,0.6-2,0.6
	c-1.9,0-3.5-1.6-3.5-3.5c0-1.9,1.6-3.5,3.5-3.5s3.5,1.6,3.5,3.5c0,0.5-0.1,1-0.3,1.5l16.8,13.1c0.3-0.3,0.6-0.6,1-0.9l-8.2-10.1
	c-0.2,0-0.4,0.1-0.7,0.1c-1.9,0-3.5-1.6-3.5-3.5c0-1.9,1.6-3.5,3.5-3.5s3.5,1.6,3.5,3.5c0,1-0.5,2-1.2,2.6l8.1,9.9
	c0.2-0.1,0.4-0.2,0.6-0.3l-5.8-16.1c-0.2,0-0.3,0-0.5,0c-1.9,0-3.5-1.6-3.5-3.5c0-1.9,1.6-3.5,3.5-3.5s3.5,1.6,3.5,3.5
	c0,1.1-0.5,2.1-1.4,2.8l5.8,16.2c0.2,0,0.4-0.1,0.5-0.1l-0.1-9.5c-1.6-0.3-2.8-1.7-2.8-3.4c0-1.9,1.6-3.5,3.5-3.5s3.5,1.6,3.5,3.5
	c0,1.6-1,2.9-2.4,3.3l0.1,9.4c0.7,0,1.4,0.1,2,0.3l4-17.1c-1.1-0.6-1.9-1.7-1.9-3.1c0-1.9,1.6-3.5,3.5-3.5s3.5,1.6,3.5,3.5
	c0,1.9-1.5,3.4-3.4,3.5l-4,17.2c0.1,0,0.2,0.1,0.3,0.1l13.9-18.9c-0.7-0.6-1.1-1.5-1.1-2.5c0-1.9,1.6-3.5,3.5-3.5s3.5,1.6,3.5,3.5
	c0,1.9-1.6,3.5-3.5,3.5c-0.3,0-0.5,0-0.8-0.1l-14,19c0.4,0.3,0.8,0.6,1.1,1l13.5-10.7c-0.2-0.4-0.3-0.9-0.3-1.4
	c0-1.9,1.6-3.5,3.5-3.5s3.5,1.6,3.5,3.5c0,1.9-1.6,3.5-3.5,3.5c-0.8,0-1.5-0.3-2.1-0.7l-13.5,10.8c0.2,0.3,0.4,0.6,0.5,1l9.6-4.2
	c0-1.9,1.6-3.4,3.5-3.4c1.9,0,3.5,1.6,3.5,3.5c0,1.9-1.6,3.5-3.5,3.5c-1.3,0-2.4-0.7-3-1.8l-9.5,4.2c0,0,0,0,0,0.1l22-0.7
	c0.1-1.8,1.6-3.2,3.5-3.2C169.1,241.3,170.7,242.9,170.7,244.8z"/>
</svg>
